<?xml version="1.0" encoding="iso-8859-1"?>
<!-- Generator: Adobe Illustrator 19.0.0, SVG Export Plug-In . SVG Version: 6.00 Build 0)  -->
<svg version="1.1" id="Layer_1" xmlns="http://www.w3.org/2000/svg" xmlns:xlink="http://www.w3.org/1999/xlink" x="0px" y="0px"
	 viewBox="0 0 512 512" style="enable-background:new 0 0 512 512;" xml:space="preserve">
<path style="fill:#FF3F62;" d="M497,281.168c-8.284,0-15,6.716-15,15v60c0,13.877-11.29,25.166-25.167,25.166
	c-13.877,0-25.166-11.289-25.166-25.166l-0.001-180.501C431.666,78.804,352.862,0,256,0S80.334,78.804,80.334,175.667
	l-0.001,180.501c0,13.877-11.29,25.166-25.167,25.166C41.289,381.334,30,370.045,30,356.168v-60c0-8.284-6.716-15-15-15
	s-15,6.716-15,15v60c0,30.418,24.747,55.166,55.166,55.166c30.405,0,55.144-24.727,55.166-55.127c0-0.014,0.002-0.025,0.002-0.039
	c0-13.877,11.289-25.168,25.166-25.168s25.167,11.291,25.167,25.168v100.667c0,13.876-11.29,25.165-25.167,25.165
	s-25.166-11.289-25.166-25.165c0-8.284-6.716-15-15-15s-15,6.716-15,15c0,30.419,24.747,55.165,55.166,55.165
	s55.167-24.746,55.167-55.165V356.168c0-13.877,11.29-25.168,25.167-25.168C229.711,331,241,342.291,241,356.168V497
	c0,8.285,6.716,15,15,15s15-6.715,15-15V356.168C271,342.291,282.29,331,296.167,331c13.877,0,25.167,11.291,25.167,25.168v100.667
	c0,30.419,24.747,55.165,55.166,55.165s55.167-24.746,55.167-55.165c0-8.284-6.716-15-15-15s-15,6.716-15,15
	c0,13.876-11.29,25.165-25.167,25.165s-25.166-11.289-25.166-25.165V356.168c0-13.877,11.289-25.168,25.166-25.168
	s25.167,11.291,25.167,25.168c0,30.418,24.747,55.166,55.166,55.166S512,386.586,512,356.168v-60
	C512,287.884,505.284,281.168,497,281.168z"/>
<path style="fill:#FF0C38;" d="M497,281.168c-8.284,0-15,6.716-15,15v60c0,13.877-11.29,25.166-25.167,25.166
	c-13.877,0-25.166-11.289-25.166-25.166l-0.001-180.501C431.666,78.804,352.862,0,256,0v512c8.284,0,15-6.715,15-15V356.168
	C271,342.291,282.29,331,296.167,331c13.877,0,25.167,11.291,25.167,25.168v100.667c0,30.419,24.747,55.165,55.166,55.165
	s55.167-24.746,55.167-55.165c0-8.284-6.716-15-15-15s-15,6.716-15,15c0,13.876-11.29,25.165-25.167,25.165
	s-25.166-11.289-25.166-25.165V356.168c0-13.877,11.289-25.168,25.166-25.168s25.167,11.291,25.167,25.168
	c0,30.418,24.747,55.166,55.166,55.166S512,386.586,512,356.168v-60C512,287.884,505.284,281.168,497,281.168z"/>
<path style="fill:#00479B;" d="M207.797,150.001c-3.95,0-7.811-1.6-10.601-4.39c-2.8-2.801-4.399-6.66-4.399-10.61
	s1.6-7.82,4.399-10.61c2.79-2.79,6.65-4.39,10.601-4.39c3.949,0,7.809,1.6,10.609,4.39c2.79,2.79,4.391,6.66,4.391,10.61
	s-1.601,7.809-4.391,10.61C215.606,148.401,211.746,150.001,207.797,150.001z"/>
<g>
	<path style="fill:#003068;" d="M304.196,150.001c-3.94,0-7.81-1.6-10.6-4.4c-2.8-2.79-4.4-6.649-4.4-10.6
		c0-3.95,1.601-7.82,4.4-10.61c2.79-2.79,6.66-4.39,10.6-4.39c3.95,0,7.82,1.6,10.61,4.39c2.79,2.79,4.39,6.66,4.39,10.61
		s-1.6,7.809-4.39,10.6C312.017,148.401,308.146,150.001,304.196,150.001z"/>
</g>
<g>
</g>
<g>
</g>
<g>
</g>
<g>
</g>
<g>
</g>
<g>
</g>
<g>
</g>
<g>
</g>
<g>
</g>
<g>
</g>
<g>
</g>
<g>
</g>
<g>
</g>
<g>
</g>
<g>
</g>
</svg>
